<svg width="112" height="31" viewBox="0 0 112 31" fill="none" xmlns="http://www.w3.org/2000/svg">
<path d="M6.52043 6.87253C7.32043 6.87253 8.01376 6.97253 8.60043 7.17253C9.1871 7.3592 9.69376 7.62586 10.1204 7.97253C10.9604 8.65253 11.5071 9.60586 11.7604 10.8325L9.24043 11.2925C9.0271 10.6125 8.69376 10.0659 8.24043 9.65253C7.80043 9.22586 7.2471 9.01253 6.58043 9.01253C5.67376 9.01253 4.94043 9.39253 4.38043 10.1525C3.78043 10.9792 3.48043 12.1259 3.48043 13.5925C3.48043 15.0459 3.7471 16.1859 4.28043 17.0125C4.81376 17.8259 5.54043 18.2325 6.46043 18.2325C7.38043 18.2325 8.07376 18.0125 8.54043 17.5725C9.0071 17.1192 9.24043 16.5392 9.24043 15.8325H11.7804C11.7804 17.2859 11.3138 18.4125 10.3804 19.2125C9.46043 19.9992 8.19376 20.3925 6.58043 20.3925C4.86043 20.3925 3.49376 19.7925 2.48043 18.5925C1.45376 17.3659 0.94043 15.6992 0.94043 13.5925C0.94043 11.4592 1.4671 9.79253 2.52043 8.59253C3.53376 7.44586 4.8671 6.87253 6.52043 6.87253Z" fill="black"/>
<path d="M17.5362 7.13253H20.4962L24.7562 20.1125H22.2562L21.3562 17.3125H16.5362L15.6162 20.1125H13.1162L17.5362 7.13253ZM17.1362 15.5325H20.7762L18.9762 9.95253L17.1362 15.5325Z" fill="black"/>
<path d="M33.8757 10.7125C33.6624 9.5792 32.8624 9.01253 31.4757 9.01253C30.7957 9.01253 30.2624 9.15253 29.8757 9.43253C29.5024 9.6992 29.3157 10.0259 29.3157 10.4125C29.3157 10.7992 29.4357 11.1059 29.6757 11.3325C29.9291 11.5459 30.3157 11.7459 30.8357 11.9325L33.6557 13.0325C34.6157 13.4059 35.3557 13.8792 35.8757 14.4525C36.3957 15.0125 36.6557 15.7192 36.6557 16.5725C36.6557 17.7459 36.2157 18.6792 35.3357 19.3725C34.4557 20.0525 33.2024 20.3925 31.5757 20.3925C30.1357 20.3925 28.9691 20.0392 28.0757 19.3325C27.0757 18.5592 26.5491 17.4659 26.4957 16.0525H28.8357C28.8357 17.1192 29.3891 17.7925 30.4957 18.0725C30.8291 18.1659 31.2691 18.2125 31.8157 18.2125C32.3624 18.2125 32.8691 18.0792 33.3357 17.8125C33.8024 17.5325 34.0357 17.1659 34.0357 16.7125C34.0357 16.2459 33.9091 15.8925 33.6557 15.6525C33.4024 15.3992 32.9891 15.1659 32.4157 14.9525L29.8357 13.9325C28.8357 13.5459 28.0691 13.0925 27.5357 12.5725C27.0024 12.0525 26.7357 11.3325 26.7357 10.4125C26.7357 9.33253 27.1557 8.4792 27.9957 7.85253C28.8491 7.19919 30.0024 6.87253 31.4557 6.87253C32.9224 6.87253 34.0491 7.21253 34.8357 7.89253C35.6357 8.5592 36.0957 9.4992 36.2157 10.7125H33.8757Z" fill="black"/>
<path d="M46.6297 10.7125C46.4163 9.5792 45.6163 9.01253 44.2296 9.01253C43.5496 9.01253 43.0163 9.15253 42.6297 9.43253C42.2563 9.6992 42.0696 10.0259 42.0696 10.4125C42.0696 10.7992 42.1896 11.1059 42.4296 11.3325C42.683 11.5459 43.0696 11.7459 43.5896 11.9325L46.4096 13.0325C47.3696 13.4059 48.1096 13.8792 48.6297 14.4525C49.1497 15.0125 49.4096 15.7192 49.4096 16.5725C49.4096 17.7459 48.9697 18.6792 48.0896 19.3725C47.2096 20.0525 45.9563 20.3925 44.3297 20.3925C42.8897 20.3925 41.723 20.0392 40.8297 19.3325C39.8297 18.5592 39.303 17.4659 39.2496 16.0525H41.5896C41.5896 17.1192 42.143 17.7925 43.2496 18.0725C43.583 18.1659 44.023 18.2125 44.5696 18.2125C45.1163 18.2125 45.623 18.0792 46.0896 17.8125C46.5563 17.5325 46.7896 17.1659 46.7896 16.7125C46.7896 16.2459 46.663 15.8925 46.4096 15.6525C46.1563 15.3992 45.743 15.1659 45.1697 14.9525L42.5896 13.9325C41.5896 13.5459 40.823 13.0925 40.2896 12.5725C39.7563 12.0525 39.4897 11.3325 39.4897 10.4125C39.4897 9.33253 39.9096 8.4792 40.7496 7.85253C41.603 7.19919 42.7563 6.87253 44.2097 6.87253C45.6763 6.87253 46.803 7.21253 47.5896 7.89253C48.3896 8.5592 48.8497 9.4992 48.9697 10.7125H46.6297Z" fill="black"/>
<path d="M52.5636 7.13253H54.9236V20.1125H52.5636V7.13253Z" fill="black"/>
<path d="M63.6178 6.87253C64.4844 6.87253 65.2778 7.01919 65.9978 7.31253C66.7178 7.59253 67.3378 8.01253 67.8578 8.57253C68.9511 9.74586 69.4978 11.4259 69.4978 13.6125C69.4978 15.8125 68.9511 17.5125 67.8578 18.7125C66.8178 19.8325 65.3978 20.3925 63.5978 20.3925C61.8111 20.3925 60.3978 19.8192 59.3578 18.6725C58.2644 17.4859 57.7178 15.7992 57.7178 13.6125C57.7178 11.3992 58.2644 9.70586 59.3578 8.53253C60.3844 7.42586 61.8044 6.87253 63.6178 6.87253ZM67.0578 13.6525C67.0578 12.1592 66.7444 11.0125 66.1178 10.2125C65.5044 9.3992 64.6711 8.99253 63.6178 8.99253C62.5644 8.99253 61.7244 9.3992 61.0978 10.2125C60.4711 11.0125 60.1578 12.1592 60.1578 13.6525C60.1578 15.1325 60.4711 16.2725 61.0978 17.0725C61.7244 17.8592 62.5644 18.2525 63.6178 18.2525C64.6711 18.2525 65.5044 17.8592 66.1178 17.0725C66.7444 16.2725 67.0578 15.1325 67.0578 13.6525Z" fill="black"/>
<path d="M76.8101 7.13253C78.2768 7.13253 79.4168 7.49253 80.2301 8.21253C81.0568 8.91919 81.4701 9.9392 81.4701 11.2725C81.4701 12.5925 81.0568 13.6125 80.2301 14.3325C79.4168 15.0392 78.2768 15.3925 76.8101 15.3925H74.6101V20.1125H72.2301V7.13253H76.8101ZM76.8101 13.3325C77.5434 13.3325 78.0968 13.1392 78.4701 12.7525C78.8435 12.3659 79.0301 11.8725 79.0301 11.2725C79.0301 10.6592 78.8435 10.1592 78.4701 9.77253C78.0968 9.37253 77.5434 9.17253 76.8101 9.17253H74.6101V13.3325H76.8101Z" fill="black"/>
<path d="M83.8912 7.13253H92.2512V9.17253H86.2512V12.5925H91.8712V14.6325H86.2512V18.0525H92.2512V20.1125H83.8912V7.13253Z" fill="black"/>
<path d="M95.63 7.13253H97.99V20.1125H95.63V7.13253Z" fill="black"/>
<path d="M104.704 7.13253H107.664L111.924 20.1125H109.424L108.524 17.3125H103.704L102.784 20.1125H100.284L104.704 7.13253ZM104.304 15.5325H107.944L106.144 9.95253L104.304 15.5325Z" fill="black"/>
</svg>
